<svg width="20" height="20" viewBox="0 0 20 20" fill="none" xmlns="http://www.w3.org/2000/svg">
<path d="M16.2889 14.9609C16.3763 15.048 16.4457 15.1514 16.493 15.2654C16.5403 15.3794 16.5647 15.5015 16.5647 15.6249C16.5647 15.7483 16.5403 15.8705 16.493 15.9844C16.4457 16.0984 16.3763 16.2019 16.2889 16.289C16.112 16.4636 15.8734 16.5615 15.6249 16.5615C15.3763 16.5615 15.1377 16.4636 14.9608 16.289L9.99986 11.328L5.03892 16.289C4.86201 16.4636 4.62344 16.5615 4.37486 16.5615C4.12628 16.5615 3.88771 16.4636 3.7108 16.289C3.6234 16.2019 3.55405 16.0984 3.50673 15.9844C3.45942 15.8705 3.43506 15.7483 3.43506 15.6249C3.43506 15.5015 3.45942 15.3794 3.50673 15.2654C3.55405 15.1514 3.6234 15.048 3.7108 14.9609L8.67174 9.99992L3.7108 5.03898C3.53468 4.86286 3.43573 4.62399 3.43573 4.37492C3.43573 4.25159 3.46003 4.12947 3.50722 4.01553C3.55442 3.90159 3.62359 3.79806 3.7108 3.71085C3.798 3.62365 3.90153 3.55447 4.01547 3.50728C4.12941 3.46008 4.25153 3.43579 4.37486 3.43579C4.62393 3.43579 4.8628 3.53473 5.03892 3.71085L9.99986 8.67179L14.9608 3.71085C15.1369 3.53473 15.3758 3.43579 15.6249 3.43579C15.8739 3.43579 16.1128 3.53473 16.2889 3.71085C16.465 3.88698 16.564 4.12585 16.564 4.37492C16.564 4.62399 16.465 4.86286 16.2889 5.03898L11.328 9.99992L16.2889 14.9609Z" fill="black"/>
</svg>
