<svg width="20" height="20" viewBox="0 0 20 20" fill="none" xmlns="http://www.w3.org/2000/svg">
<g clip-path="url(#clip0_1122_44)">
<path fill-rule="evenodd" clip-rule="evenodd" d="M13.7933 18.4442C12.5933 18.4001 9.19248 17.9301 5.63081 14.3692C2.06998 10.8076 1.60081 7.40756 1.55581 6.20672C1.48915 4.37672 2.89081 2.59922 4.50998 1.90506C4.70496 1.82086 4.91848 1.78881 5.12959 1.81204C5.3407 1.83527 5.54214 1.91298 5.71415 2.03756C7.04748 3.00922 7.96748 4.47922 8.75748 5.63506C8.9313 5.889 9.00562 6.19801 8.96628 6.50322C8.92694 6.80843 8.77668 7.0885 8.54415 7.29006L6.91831 8.49756C6.83976 8.55428 6.78447 8.63758 6.76271 8.73199C6.74095 8.8264 6.75419 8.92551 6.79998 9.01089C7.16831 9.68006 7.82331 10.6767 8.57331 11.4267C9.32415 12.1767 10.3675 12.8751 11.0833 13.2851C11.1731 13.3354 11.2787 13.3495 11.3785 13.3244C11.4783 13.2993 11.5647 13.2369 11.62 13.1501L12.6783 11.5392C12.8729 11.2808 13.1599 11.1076 13.4793 11.056C13.7987 11.0045 14.1256 11.0785 14.3916 11.2626C15.5641 12.0742 16.9325 12.9784 17.9341 14.2609C18.0688 14.4341 18.1545 14.6404 18.1822 14.8581C18.2099 15.0758 18.1786 15.2969 18.0916 15.4984C17.3941 17.1259 15.6291 18.5117 13.7933 18.4442Z" fill="#898989"/>
</g>
<defs>
<clipPath id="clip0_1122_44">
<rect width="20" height="20" fill="white"/>
</clipPath>
</defs>
</svg>
